<svg xmlns="http://www.w3.org/2000/svg" width="800" height="800" fill="none"><rect width="800" height="800" fill="#FAFAFA" rx="140"/><g stroke-linecap="round" stroke-linejoin="round" stroke-width="45.583" filter="url(#a)" shape-rendering="crispEdges"><path stroke="url(#b)" d="M200.529 284.63 399.5 399.728 598.472 284.63M400 626.74V397m204.625 93.667V308.333a45.58 45.58 0 0 0-22.792-39.429l-159.541-91.167a45.58 45.58 0 0 0-45.584 0l-159.541 91.167a45.577 45.577 0 0 0-22.792 39.429v182.334a45.58 45.58 0 0 0 22.792 39.429l159.541 91.167a45.58 45.58 0 0 0 45.584 0l159.541-91.167a45.58 45.58 0 0 0 22.792-39.429"/><path stroke="url(#c)" stroke-opacity=".2" d="M200.529 284.63 399.5 399.728 598.472 284.63M400 626.74V397m204.625 93.667V308.333a45.58 45.58 0 0 0-22.792-39.429l-159.541-91.167a45.58 45.58 0 0 0-45.584 0l-159.541 91.167a45.577 45.577 0 0 0-22.792 39.429v182.334a45.58 45.58 0 0 0 22.792 39.429l159.541 91.167a45.58 45.58 0 0 0 45.584 0l159.541-91.167a45.58 45.58 0 0 0 22.792-39.429"/></g><defs><linearGradient id="b" x1="557" x2="-256" y1="193.5" y2="1252" gradientUnits="userSpaceOnUse"><stop stop-color="#212121"/><stop offset="1" stop-color="#666"/></linearGradient><linearGradient id="c" x1="225" x2="605" y1="525.5" y2="194.5" gradientUnits="userSpaceOnUse"><stop stop-color="#212121" stop-opacity="0"/><stop offset="1" stop-color="#09F"/></linearGradient><filter id="a" width="485.833" height="531.323" x="156.583" y="133.838" color-interpolation-filters="sRGB" filterUnits="userSpaceOnUse"><feFlood flood-opacity="0" result="BackgroundImageFix"/><feColorMatrix in="SourceAlpha" result="hardAlpha" values="0 0 0 0 0 0 0 0 0 0 0 0 0 0 0 0 0 0 127 0"/><feOffset/><feGaussianBlur stdDeviation="7.5"/><feComposite in2="hardAlpha" operator="out"/><feColorMatrix values="0 0 0 0 0 0 0 0 0 0 0 0 0 0 0 0 0 0 0.2 0"/><feBlend in2="BackgroundImageFix" result="effect1_dropShadow_3_16"/><feBlend in="SourceGraphic" in2="effect1_dropShadow_3_16" result="shape"/><feColorMatrix in="SourceAlpha" result="hardAlpha" values="0 0 0 0 0 0 0 0 0 0 0 0 0 0 0 0 0 0 127 0"/><feOffset/><feGaussianBlur stdDeviation="2.5"/><feComposite in2="hardAlpha" k2="-1" k3="1" operator="arithmetic"/><feColorMatrix values="0 0 0 0 1 0 0 0 0 1 0 0 0 0 1 0 0 0 1 0"/><feBlend in2="shape" result="effect2_innerShadow_3_16"/></filter></defs></svg>